<svg xmlns="http://www.w3.org/2000/svg" viewBox="0 0 48 48">
  <path d="M9.5 7C6.47 7 4 9.47 4 12.5L4 31.5C4 34.53 6.47 37 9.5 37L27 37L27 35.320312C26.7 34.900312 26.440938 34.46 26.210938 34L9.5 34C8.12 34 7 32.88 7 31.5L7 12.5C7 11.12 8.12 10 9.5 10L38.5 10C39.88 10 41 11.12 41 12.5L41 19.199219C42.13 19.779219 43.14 20.539219 44 21.449219L44 12.5C44 9.47 41.53 7 38.5 7L9.5 7 z M 13.5 15 A 1.50015 1.50015 0 1 0 13.5 18L34.5 18 A 1.50015 1.50015 0 1 0 34.5 15L13.5 15 z M 36 21C31.599487 21 28 24.59949 28 29C28 31.014253 28.760065 32.855411 30 34.265625L30 43.5 A 1.50015 1.50015 0 0 0 32.332031 44.748047L36 42.302734L39.667969 44.748047 A 1.50015 1.50015 0 0 0 42 43.5L42 34.265625C43.239935 32.855411 44 31.014253 44 29C44 24.59949 40.400513 21 36 21 z M 36 24C38.779194 24 41 26.220808 41 29C41 31.779192 38.779194 34 36 34C33.220806 34 31 31.779192 31 29C31 26.220808 33.220806 24 36 24 z M 13.5 26 A 1.50015 1.50015 0 1 0 13.5 29L22.5 29 A 1.50015 1.50015 0 1 0 22.5 26L13.5 26 z M 33 36.408203C33.927888 36.786761 34.940058 37 36 37C37.059942 37 38.072112 36.786761 39 36.408203L39 40.697266L36.832031 39.251953 A 1.50015 1.50015 0 0 0 35.167969 39.251953L33 40.697266L33 36.408203 z" 
  fill="rgba(255,255,255,0.5)" />
</svg>