<svg xmlns="http://www.w3.org/2000/svg" baseProfile="basic" viewBox="0 0 48 48"><linearGradient id="TfH1fRskWZ_v48IxtnhU7a" x1="21.813" x2="21.813" y1="34.501" y2="17.125" gradientUnits="userSpaceOnUse"><stop offset="0" stop-color="#e52030"/><stop offset=".557" stop-color="#ee3d4a"/><stop offset="1" stop-color="#f44f5a"/></linearGradient><path fill="url(#TfH1fRskWZ_v48IxtnhU7a)" d="M27.625,26.008l-1.886,0.238l-3.049-8.46c-0.146-0.41-0.548-0.666-0.979-0.661c-0.436,0.017-0.81,0.313-0.926,0.733l-2.582,9.339l-2.455,0.31c-0.548,0.069-0.937,0.569-0.867,1.118c0.063,0.505,0.494,0.875,0.991,0.875c0.041,0,0.084-0.002,0.126-0.008l1.627-0.206l-1.091,3.947c-0.147,0.533,0.165,1.083,0.697,1.23c0.089,0.024,0.179,0.037,0.268,0.037c0.438,0,0.841-0.291,0.963-0.734l1.313-4.752l4.624-0.584l1.408,3.908c0.187,0.52,0.763,0.788,1.279,0.602c0.52-0.188,0.789-0.76,0.602-1.28l-1.257-3.487l1.441-0.182c0.548-0.069,0.937-0.569,0.867-1.118C28.674,26.328,28.175,25.938,27.625,26.008z M20.355,26.926l1.521-5.503l1.83,5.079L20.355,26.926z"/><linearGradient id="TfH1fRskWZ_v48IxtnhU7b" x1="24.498" x2="24.498" y1="42.974" y2="3.99" gradientUnits="userSpaceOnUse"><stop offset="0" stop-color="#e52030"/><stop offset=".557" stop-color="#ee3d4a"/><stop offset="1" stop-color="#f44f5a"/></linearGradient><path fill="url(#TfH1fRskWZ_v48IxtnhU7b)" d="M24.414,42.974c-4.108,0-8.245-1.286-11.6-3.927c-7.308-5.753-9.01-17.102-3.796-25.298c1.932-3.037,5.095-5.83,8.678-7.662c7.771-3.975,19.102-1.101,19.58-0.975c0.535,0.139,0.855,0.685,0.717,1.219c-0.14,0.534-0.683,0.858-1.219,0.717c-0.109-0.028-11.076-2.806-18.168,0.82c-3.274,1.674-6.154,4.209-7.9,6.954c-4.679,7.355-3.178,17.518,3.345,22.653c6.813,5.363,17.22,4.484,22.728-1.918c2.766-3.215,4.187-6.752,4.221-10.511c0.045-4.765-2.343-9.551-6.386-12.802c-0.43-0.346-0.498-0.976-0.152-1.406c0.347-0.431,0.976-0.499,1.406-0.153c4.516,3.631,7.182,9.007,7.132,14.379c-0.039,4.245-1.622,8.214-4.705,11.797C34.83,40.889,29.645,42.974,24.414,42.974z"/><linearGradient id="TfH1fRskWZ_v48IxtnhU7c" x1="29.938" x2="29.938" y1="20.125" y2="11.499" gradientUnits="userSpaceOnUse"><stop offset="0" stop-color="#e52030"/><stop offset=".557" stop-color="#ee3d4a"/><stop offset="1" stop-color="#f44f5a"/></linearGradient><path fill="url(#TfH1fRskWZ_v48IxtnhU7c)" d="M32.812,14.627l-1.894,0.121l-0.043-2.267c-0.011-0.551-0.504-1-1.019-0.981c-0.553,0.011-0.991,0.467-0.981,1.019l0.044,2.356l-1.983,0.127c-0.552,0.035-0.97,0.511-0.935,1.062C26.036,16.593,26.476,17,26.999,17c0.021,0,0.043,0,0.064-0.002l1.894-0.121L29,19.144c0.011,0.545,0.456,0.981,1,0.981c0.006,0,0.013,0,0.019,0c0.553-0.011,0.991-0.467,0.981-1.019l-0.044-2.356l1.983-0.127c0.552-0.035,0.97-0.511,0.935-1.062C33.838,15.01,33.343,14.586,32.812,14.627z"/></svg>