<svg xmlns="http://www.w3.org/2000/svg" viewBox="0 0 48 48">
  <path d="M17.779297 6.9023438C12.121338 6.8474121 13 13 13 13C20 14 19 7 19 7C18.5625 6.9375 18.156494 6.9060059 17.779297 6.9023438 z M 31.220703 6.9023438C30.843506 6.9060059 30.4375 6.9375 30 7C30 7 29 14 36 13C36 13 36.878662 6.8474121 31.220703 6.9023438 z M 6.9375 11.046875C6.9375 11.046875 2.6215781 17.657063 10.392578 20.414062C16.777578 23.452062 18.587891 16.353516 18.587891 16.353516C14.489077 14.000061 12.369837 15.913094 11.322266 17.832031C11.740214 15.651604 11.367645 12.641108 6.9375 11.046875 z M 41.623047 11.046875C37.192902 12.641108 36.820408 15.651604 37.238281 17.832031C36.190901 15.913094 34.072068 14.000061 29.972656 16.353516C29.972656 16.353516 31.782969 23.452062 38.167969 20.414062C45.938969 17.657063 41.623047 11.046875 41.623047 11.046875 z M 17 23C11.681846 23.344477 11.07935 26.377416 11.240234 28.335938C10.641667 26.167504 8.8679191 22.788308 3.5 24.105469C3.5 24.105469 3.5605469 32 11.560547 30C18.560547 29 17 23 17 23 z M 32 23C32 23 30 29 37 30C45 32 45.060547 24.105469 45.060547 24.105469C40.201289 22.913122 38.271457 25.586156 37.503906 27.712891C37.589784 25.790268 36.760924 23.308383 32 23 z M 19.431641 29.201172C14.858785 29.381771 13.76082 31.943041 13.642578 34.070312 A 1.50015 1.50015 0 0 0 13.324219 34.132812C11.765186 32.7258 9.2466711 31.751014 5.8886719 34.6875C5.8886719 34.6875 9.0235612 39.809727 13.636719 37.537109C14.900107 38.633471 16.500688 39.507505 18.216797 40.160156C15.975237 41.206307 14.564453 42.328125 14.564453 42.328125 A 1.50015 1.50015 0 1 0 16.435547 44.671875C16.435547 44.671875 19.906803 41.97 24.28125 41.480469C28.654788 41.97058 32.125 44.671875 32.125 44.671875 A 1.50015 1.50015 0 1 0 33.998047 42.328125C33.998047 42.328125 32.587263 41.206307 30.345703 40.160156C32.061812 39.507505 33.662393 38.633471 34.925781 37.537109C39.538552 39.808855 42.673828 34.6875 42.673828 34.6875C39.315265 31.751014 36.79519 32.7258 35.236328 34.132812 A 1.50015 1.50015 0 0 0 34.917969 34.070312C34.799547 31.943041 33.703136 29.381771 29.130859 29.201172C29.130859 29.201172 28.086377 34.110336 31.650391 36.119141C29.644321 37.29339 26.830862 38.267375 24.517578 38.439453C24.437439 38.445403 24.360809 38.45771 24.28125 38.464844C24.201691 38.45771 24.125061 38.445403 24.044922 38.439453C21.731638 38.267375 18.916798 37.29339 16.910156 36.119141C20.47417 34.110336 19.431641 29.201172 19.431641 29.201172 z" 
  fill="#6F40AA" />
</svg>