<svg xmlns="http://www.w3.org/2000/svg" id="Layer_2_00000070796691884198333020000004515301077358537894_" x="0" y="0" viewBox="0 0 48 48"><radialGradient id="SVGID_1_" cx="11.177" cy="39.497" r="40.312" gradientTransform="matrix(1 0 0 -1 0 47.89)" gradientUnits="userSpaceOnUse"><stop offset="0" stop-color="#0370c8"/><stop offset=".484" stop-color="#036fc5"/><stop offset=".775" stop-color="#036abd"/><stop offset="1" stop-color="#0362b0"/></radialGradient><path fill="url(#SVGID_1_)" d="M44,24c0,11-9,20-20,20S4,35,4,24S13,4,24,4S44,13,44,24z"/><radialGradient id="SVGID_00000029004433466862948060000016210918753302716291_" cx="70.617" cy="14.847" r=".5" gradientUnits="userSpaceOnUse"><stop offset="0"/><stop offset=".262" stop-opacity="0"/></radialGradient><path fill="url(#SVGID_00000029004433466862948060000016210918753302716291_)" d="M24,44c5.8,0,11-2.5,14.7-6.4C36.2,31.9,30.6,28,24,28s-12.2,3.9-14.7,9.6C13,41.5,18.2,44,24,44z"/><radialGradient id="SVGID_00000013900679117366048970000002081160558382989697_" cx="24" cy="27.89" r="9.5" gradientTransform="matrix(1 0 0 -1 0 47.89)" gradientUnits="userSpaceOnUse"><stop offset="0"/><stop offset="0" stop-opacity="0"/></radialGradient><circle cx="24" cy="20" r="9.5" fill="url(#SVGID_00000013900679117366048970000002081160558382989697_)"/><linearGradient id="SVGID_00000055683966710819621600000017599207352454932644_" x1="18.573" x2="29.735" y1="34.317" y2="23.155" gradientTransform="matrix(1 0 0 -1 0 47.89)" gradientUnits="userSpaceOnUse"><stop offset="0" stop-color="#75daff"/><stop offset="1" stop-color="#1ea2e4"/></linearGradient><circle cx="24" cy="19" r="8" fill="url(#SVGID_00000055683966710819621600000017599207352454932644_)"/><linearGradient id="SVGID_00000050633512296148467200000014850908994387863998_" x1="17.007" x2="30.888" y1="16.68" y2="2.799" gradientTransform="matrix(1 0 0 -1 0 47.89)" gradientUnits="userSpaceOnUse"><stop offset="0" stop-color="#75daff"/><stop offset="1" stop-color="#1ea2e4"/></linearGradient><path fill="url(#SVGID_00000050633512296148467200000014850908994387863998_)" d="M24,44c5,0,9.6-1.9,13.1-4.9C35.1,33.8,30,30,24,30s-11.1,3.8-13.1,9.1C14.4,42.1,19,44,24,44z"/></svg>