<svg xmlns="http://www.w3.org/2000/svg" viewBox="0 0 48 48">
  <path d="M10.5 5 A 1.50015 1.50015 0 0 0 9 6.5L9 8L5.5 8 A 1.50015 1.50015 0 0 0 4 9.5L4 40.5 A 1.50015 1.50015 0 0 0 5.5 42L42.5 42 A 1.50015 1.50015 0 0 0 44 40.5L44 9.5 A 1.50015 1.50015 0 0 0 42.5 8L39 8L39 6.5 A 1.50015 1.50015 0 0 0 37.5 5L30 5C27.487688 5 25.362928 6.3329306 24 8.2441406C22.637072 6.3329306 20.512312 5 18 5L10.5 5 z M 12 8L18 8C20.503499 8 22.5 9.9965009 22.5 12.5L22.5 35.529297C21.241968 34.580084 19.689113 34 18 34L12 34L12 9.7460938 A 1.50015 1.50015 0 0 0 12 9.2597656L12 8 z M 30 8L36 8L36 9.2539062 A 1.50015 1.50015 0 0 0 36 9.7402344L36 34L30 34C28.310887 34 26.758032 34.580084 25.5 35.529297L25.5 12.5C25.5 9.9965009 27.496501 8 30 8 z M 7 11L9 11L9 35.5 A 1.50015 1.50015 0 0 0 10.5 37L18 37C19.570516 37 20.936734 37.79659 21.740234 39L7 39L7 11 z M 39 11L41 11L41 39L26.259766 39C27.063247 37.79659 28.429484 37 30 37L37.5 37 A 1.50015 1.50015 0 0 0 39 35.5L39 11 z" 
  fill="rgba(255,255,255,0.3)" />
</svg>