<svg xmlns="http://www.w3.org/2000/svg" xmlns:xlink="http://www.w3.org/1999/xlink" viewBox="0 0 48 48" fill="rgba(255,255,255,0.3)">
  <path d="M45.822,17.783c-0.429-1.326-1.555-2.273-2.938-2.473l-10.798-1.561l-4.828-9.731C26.641,2.773,25.393,2,24,2s-2.641,0.773-3.258,2.018l-4.828,9.731L5.116,15.31c-1.383,0.2-2.508,1.147-2.938,2.473c-0.428,1.321-0.074,2.743,0.924,3.711l7.81,7.573L9.069,39.758c-0.235,1.365,0.315,2.722,1.437,3.539c1.128,0.823,2.597,0.93,3.834,0.284L24,38.528l9.66,5.052C34.196,43.861,34.776,44,35.352,44c0.754,0,1.503-0.237,2.142-0.703c1.122-0.817,1.672-2.174,1.437-3.54l-1.843-10.691l7.809-7.572C45.896,20.526,46.25,19.104,45.822,17.783z M24,32c-2.698,0-4.267-1.193-4.437-1.329c-0.647-0.518-0.752-1.461-0.234-2.108c0.512-0.642,1.444-0.751,2.091-0.248C21.485,28.363,22.385,29,24,29c0.913,0,2-0.304,2-1.75c0-0.965-0.785-1.75-1.75-1.75H21c-0.446,0-0.87-0.199-1.154-0.542c-0.285-0.343-0.402-0.796-0.32-1.235l0.846-4.5C20.505,18.514,21.125,18,21.846,18H27c0.829,0,1.5,0.671,1.5,1.5S27.829,21,27,21h-3.91l-0.282,1.5h1.441c2.619,0,4.75,2.131,4.75,4.75C29,30.047,26.944,32,24,32z" fill="rgba(255,255,255,0.3)" />
</svg>